# xmcd
#
# Track frame offsets:
#	150
#	21898
#	33367
#	50880
#	68659
#	80359
#	99583
#	119224
#	133181
#	154929
#	166398
#	183814
#	201593
#	213306
#	232530
#	252171
#	277529
#
# Disc length: 3709 seconds
#
# Revision: 1
# Processed by: cddbd v1.5.2PL0 Copyright (c) Steve Scherf et al.
# Submitted via: audiograbber 1.83.01
#
DISCID=e90e7b11
DTITLE=Willie Nelson - 2511
DYEAR=2006
DGENRE=Country
TTITLE0=Willie Nelson - Angel Flying Too Close To The Ground
TTITLE1=Willie Nelson - Blue Eyes Crying In The Rain
TTITLE2=Willie Nelson - Always On My Mind
TTITLE3=Willie Nelson - Whiskey River
TTITLE4=Willie Nelson - On The Road Again
TTITLE5=Willie Nelson and Ray Charles - Seven Spanish Angels
TTITLE6=Willie Nelson - Help Me Make It Through The Night
TTITLE7=Willie Nelson and Waylon Jennings - Mammas Don't Let Your Babies Grow Up 
TTITLE7=To Be Cowboys
TTITLE8=Vocal Demo Track - Angel Flying Too Close To The Ground
TTITLE9=Vocal Demo Track - Blue Eyes Crying In The Rain
TTITLE10=Vocal Demo Track - Always On My Mind
TTITLE11=Vocal Demo Track - Whiskey River
TTITLE12=Vocal Demo Track - On The Road Again
TTITLE13=Vocal Demo Track - Seven Spanish Angels
TTITLE14=Vocal Demo Track - Help Me Make It Through The Night
TTITLE15=Vocal Demo Track - Mammas Don't Let Your Babies Grow Up To Be Cowboys
TTITLE16=Data - Data Track
EXTD=Initial Submission
EXTT0=
EXTT1=
EXTT2=
EXTT3=
EXTT4=
EXTT5=
EXTT6=
EXTT7=
EXTT8=
EXTT9=
EXTT10=
EXTT11=
EXTT12=
EXTT13=
EXTT14=
EXTT15=
EXTT16=
PLAYORDER=
